<svg width="67" height="67" viewBox="0 0 67 67" fill="none" xmlns="http://www.w3.org/2000/svg">
<g clip-path="url(#clip0_9_450)">
<path d="M62.8363 33.3471C62.7362 32.8093 62.4072 32.3564 61.9352 32.0733C51.0651 25.6623 44.6861 24.332 40.0234 23.3696C39.4227 23.2422 38.8363 23.129 38.2785 23.0016L36.2618 6.59896C36.1903 2.97593 33.1867 0.0322266 29.5109 0.0322266C25.878 0.0322266 22.9459 2.8061 22.76 6.37252C22.76 6.44328 22.7457 6.49989 22.7457 6.57065V16.2226L22.5884 39.7864L20.0139 37.8192C19.5133 37.3947 16.0234 34.6066 11.704 34.6066C8.78621 34.6066 6.19741 35.8237 4.00909 38.2013C3.39408 38.8665 3.33686 39.8572 3.86607 40.5931C4.052 40.8478 8.48585 46.99 15.437 53.2454C19.5562 56.9392 23.704 59.897 27.766 62.034C32.9435 64.7513 38.0067 66.1524 42.8267 66.1949C42.8983 66.1949 42.9841 66.1949 43.0556 66.1949C49.6348 66.1949 54.7552 64.0437 58.2737 59.8121C66.1116 50.3866 62.965 34.0405 62.8363 33.3471ZM55.2844 57.4062C52.5383 60.7179 48.4191 62.3879 43.0556 62.3879C42.9841 62.3879 42.9269 62.3879 42.8553 62.3879C33.2868 62.3171 24.1044 55.8777 18.0973 50.4857C13.3059 46.1833 9.68728 41.8527 8.02816 39.7298C9.15808 38.8665 10.3738 38.4419 11.7183 38.4419C14.822 38.4419 17.5109 40.7205 17.5252 40.7488C17.5538 40.7771 17.5967 40.8054 17.6253 40.8337L23.3321 45.1785C23.9185 45.6172 24.6909 45.7021 25.3631 45.3766C26.021 45.0653 26.4358 44.4001 26.4501 43.6783L26.636 16.2509V6.69802C26.636 6.68387 26.636 6.65557 26.636 6.64141C26.6789 5.08465 27.9519 3.86754 29.5252 3.86754C31.1271 3.86754 32.4143 5.15541 32.4143 6.72633C32.4143 6.79709 32.4143 6.88201 32.4286 6.95277L34.5884 24.7707C34.6885 25.5491 35.2463 26.1859 36.0043 26.3841C37.0341 26.653 38.0925 26.8794 39.2225 27.1058C43.7421 28.0399 49.3488 29.2145 59.1891 34.9038C59.6754 38.1872 61.0627 50.4574 55.2844 57.4062Z" fill="black"/>
</g>
<defs>
<clipPath id="clip0_9_450">
<rect width="66.8653" height="66.1626" fill="white" transform="translate(0.103729 0.0322266)"/>
</clipPath>
</defs>
</svg>
